<mxfile host="app.diagrams.net" modified="2024-01-18T23:04:59.265Z" agent="Mozilla/5.0 (Windows NT 10.0; Win64; x64) AppleWebKit/537.36 (KHTML, like Gecko) Chrome/120.0.0.0 Safari/537.36" version="22.1.21" etag="xjgEynbTQwBY7UW9XB0f" type="github">
  <diagram name="Page-1" id="cb5imOiB0F6aZP0FGHaA">
    <mxGraphModel>
      <root>
        <mxCell id="0" />
        <mxCell id="1" parent="0" />
      </root>
    </mxGraphModel>
  </diagram>
</mxfile>
